<?xml version="1.0" encoding="utf-8"?>
<!-- Generator: Adobe Illustrator 16.0.0, SVG Export Plug-In . SVG Version: 6.00 Build 0)  -->
<!DOCTYPE svg PUBLIC "-//W3C//DTD SVG 1.1//EN" "http://www.w3.org/Graphics/SVG/1.1/DTD/svg11.dtd">
<svg version="1.1" id="Layer_1" xmlns="http://www.w3.org/2000/svg" xmlns:xlink="http://www.w3.org/1999/xlink" x="0px" y="0px"
	 width="80.5px" height="59.333px" viewBox="0 0 80.5 59.333" enable-background="new 0 0 80.5 59.333" xml:space="preserve">
<g>
	<path fill="#C6C6C6" d="M41.052,9.554c-2.078-2.271-4.447-3.976-7.107-5.111c-2.663-1.136-5.389-1.704-8.18-1.704
		c-2.857,0-5.615,0.568-8.277,1.704c-2.662,1.136-5.014,2.84-7.059,5.111c-2.045,2.273-3.701,5.081-4.967,8.423
		C4.196,21.322,3.564,25.2,3.564,29.614c0,4.415,0.633,8.292,1.898,11.636c1.266,3.344,2.922,6.15,4.967,8.422
		c2.045,2.273,4.396,3.979,7.059,5.113c2.663,1.133,5.42,1.703,8.277,1.703c2.791,0,5.517-0.568,8.18-1.703
		c2.66-1.136,5.029-2.84,7.107-5.113c2.077-2.271,3.732-5.078,4.968-8.422c1.231-3.344,1.85-7.222,1.85-11.636
		c0-4.414-0.617-8.292-1.85-11.637C44.785,14.635,43.129,11.827,41.052,9.554z M37.986,39.067c-0.487,2.877-1.251,5.35-2.289,7.419
		c-1.039,2.069-2.37,3.687-3.992,4.849c-1.623,1.164-3.603,1.746-5.939,1.746s-4.318-0.582-5.939-1.746
		c-1.624-1.162-2.971-2.778-4.041-4.849c-1.071-2.069-1.851-4.542-2.338-7.419c-0.486-2.875-0.73-6.027-0.73-9.454
		s0.244-6.577,0.73-9.454c0.487-2.876,1.267-5.35,2.338-7.419c1.07-2.069,2.434-3.686,4.09-4.849
		c1.654-1.163,3.617-1.745,5.891-1.745c2.337,0,4.316,0.582,5.939,1.745c1.622,1.163,2.953,2.779,3.992,4.849
		c1.038,2.069,1.802,4.543,2.289,7.419c0.486,2.877,0.73,6.027,0.73,9.454C38.716,33.04,38.472,36.192,37.986,39.067z"/>
	<path fill="#C6C6C6" d="M74.305,53.032c-0.682-0.162-1.185-0.308-1.509-0.439c-0.845-0.389-1.461-0.827-1.851-1.313
		c-0.391-0.487-0.715-1.151-0.975-1.995c-0.195-0.715-0.326-1.38-0.39-1.998c-0.065-0.615-0.097-1.443-0.097-2.481V17.247
		c0-0.648,0.015-1.655,0.049-3.019c0.031-1.363,0.048-2.775,0.048-4.236s0.017-2.79,0.05-3.992c0.032-1.2,0.049-1.996,0.049-2.386
		c0-0.648-0.357-0.974-1.07-0.974c-0.26,0-0.812,0.131-1.655,0.39c-0.845,0.26-1.655,0.486-2.435,0.682
		c-0.91,0.194-1.771,0.39-2.58,0.584c-0.812,0.194-1.655,0.374-2.531,0.535c-0.877,0.163-1.818,0.326-2.824,0.487
		c-1.008,0.163-2.127,0.341-3.359,0.535v2.045C54.261,7.964,55.188,8.029,56,8.094c0.811,0.065,1.541,0.229,2.189,0.486
		c0.778,0.326,1.348,0.73,1.705,1.218c0.354,0.486,0.633,1.185,0.828,2.094c0.129,0.778,0.209,1.591,0.241,2.434
		c0.033,0.845,0.05,1.721,0.05,2.629v27.85c0,1.039-0.033,1.865-0.098,2.482s-0.193,1.282-0.391,1.996
		c-0.26,0.844-0.584,1.51-0.974,1.996s-1.007,0.926-1.851,1.314c-0.325,0.131-0.827,0.275-1.51,0.438
		c-0.682,0.163-1.349,0.311-1.996,0.438v2.046H76.3v-2.046C75.652,53.34,74.986,53.194,74.305,53.032z"/>
</g>
</svg>
