<?xml version="1.0" encoding="utf-8"?>
<!-- Generator: Adobe Illustrator 16.0.0, SVG Export Plug-In . SVG Version: 6.00 Build 0)  -->
<!DOCTYPE svg PUBLIC "-//W3C//DTD SVG 1.1//EN" "http://www.w3.org/Graphics/SVG/1.1/DTD/svg11.dtd">
<svg version="1.1" id="Layer_1" xmlns="http://www.w3.org/2000/svg" xmlns:xlink="http://www.w3.org/1999/xlink" x="0px" y="0px"
	 width="94.016px" height="58.833px" viewBox="0 0 94.016 58.833" enable-background="new 0 0 94.016 58.833" xml:space="preserve">
<g>
	<path fill="#FFFFFF" d="M1.459,29.416c0-4.414,0.633-8.292,1.898-11.637c1.266-3.342,2.921-6.149,4.966-8.423
		c2.045-2.271,4.397-3.976,7.06-5.111c2.661-1.136,5.419-1.704,8.277-1.704c2.791,0,5.517,0.568,8.18,1.704
		c2.66,1.136,5.029,2.84,7.107,5.111c2.077,2.273,3.732,5.081,4.967,8.423c1.232,3.345,1.85,7.223,1.85,11.637
		c0,4.415-0.617,8.293-1.85,11.636c-1.234,3.345-2.89,6.151-4.967,8.423c-2.078,2.273-4.447,3.978-7.107,5.112
		c-2.663,1.135-5.389,1.704-8.18,1.704c-2.857,0-5.616-0.569-8.277-1.704c-2.663-1.135-5.015-2.839-7.06-5.112
		c-2.045-2.271-3.7-5.078-4.966-8.423C2.092,37.709,1.459,33.831,1.459,29.416z M23.661,52.883c2.337,0,4.316-0.581,5.939-1.745
		c1.622-1.162,2.953-2.779,3.992-4.849c1.038-2.069,1.802-4.542,2.289-7.419c0.486-2.875,0.73-6.028,0.73-9.454
		c0-3.427-0.244-6.577-0.73-9.454c-0.487-2.876-1.251-5.35-2.289-7.419c-1.039-2.069-2.37-3.686-3.992-4.849
		c-1.623-1.163-3.603-1.745-5.939-1.745c-2.273,0-4.236,0.582-5.891,1.745s-3.019,2.779-4.09,4.849
		c-1.071,2.069-1.85,4.543-2.337,7.419c-0.487,2.877-0.73,6.027-0.73,9.454c0,3.426,0.244,6.579,0.73,9.454
		c0.487,2.877,1.266,5.35,2.337,7.419c1.071,2.069,2.417,3.687,4.041,4.849C19.343,52.302,21.324,52.883,23.661,52.883z"/>
	<path fill="#FFFFFF" d="M90.167,47.284c-0.715,2.435-1.429,5.112-2.143,8.033H52.385v-2.727l7.498-5.355
		c2.076-1.427,4.365-3.147,6.865-5.161c2.498-2.011,4.852-4.3,7.059-6.864s4.041-5.442,5.502-8.636
		c1.461-3.192,2.191-6.712,2.191-10.558c0-3.779-0.779-6.401-2.338-7.868c-1.558-1.466-3.797-2.199-6.719-2.199
		c-1.883,0-3.668,0.424-5.355,1.271c-1.688,0.848-3.197,2.054-4.527,3.618c-1.332,1.564-2.386,3.438-3.165,5.622
		c-0.778,2.183-1.169,4.578-1.169,7.186c0,2.282,0.502,3.847,1.51,4.693c1.006,0.848,2.094,1.271,3.262,1.271
		c1.169,0,2.191-0.259,3.068-0.778c0.875-0.52,1.654-1.184,2.336-1.996c0.682-0.812,1.299-1.753,1.851-2.824
		c0.551-1.071,1.054-2.191,1.509-3.359l2.045,0.779c-0.52,1.688-1.168,3.262-1.947,4.723c-0.779,1.46-1.721,2.743-2.824,3.846
		c-1.104,1.104-2.37,1.981-3.797,2.629c-1.429,0.65-2.986,0.974-4.674,0.974c-2.922,0-5.21-0.859-6.865-2.58
		c-1.655-1.719-2.482-4.008-2.482-6.864c0-2.922,0.664-5.697,1.996-8.326c1.329-2.629,3.082-4.917,5.258-6.864
		c2.174-1.948,4.689-3.506,7.547-4.675c2.855-1.168,5.842-1.752,8.958-1.752c5.192,0,9.136,1.201,11.831,3.603
		c2.693,2.402,4.041,5.551,4.041,9.445c0,2.792-0.487,5.355-1.461,7.692s-2.191,4.479-3.651,6.427s-3.035,3.668-4.723,5.161
		c-1.688,1.494-3.214,2.823-4.577,3.992c-1.623,1.299-3.505,2.727-5.646,4.284c-2.143,1.559-4.416,3.084-6.816,4.577v0.486h13.826
		c1.363,0,2.483-0.063,3.359-0.194c0.877-0.13,1.623-0.324,2.24-0.585c0.616-0.258,1.152-0.567,1.606-0.925
		c0.454-0.355,0.94-0.794,1.461-1.314c0.843-0.843,1.476-1.622,1.898-2.337c0.421-0.714,0.827-1.427,1.218-2.143h2.434
		C91.497,42.659,90.879,44.85,90.167,47.284z"/>
</g>
</svg>
