<?xml version="1.0" encoding="utf-8"?>
<!-- Generator: Adobe Illustrator 16.0.0, SVG Export Plug-In . SVG Version: 6.00 Build 0)  -->
<!DOCTYPE svg PUBLIC "-//W3C//DTD SVG 1.1//EN" "http://www.w3.org/Graphics/SVG/1.1/DTD/svg11.dtd">
<svg version="1.1" id="Layer_1" xmlns="http://www.w3.org/2000/svg" xmlns:xlink="http://www.w3.org/1999/xlink" x="0px" y="0px"
	 width="94.016px" height="58.833px" viewBox="0 0 94.016 58.833" enable-background="new 0 0 94.016 58.833" xml:space="preserve">
<g>
	<path fill="#FFFFFF" d="M2.504,29.453c0-4.414,0.633-8.292,1.898-11.637c1.266-3.342,2.921-6.149,4.966-8.423
		c2.045-2.271,4.397-3.976,7.06-5.111c2.661-1.136,5.419-1.704,8.277-1.704c2.791,0,5.517,0.568,8.179,1.704
		c2.661,1.136,5.03,2.84,7.108,5.111c2.077,2.273,3.732,5.081,4.966,8.423c1.232,3.345,1.85,7.223,1.85,11.637
		c0,4.415-0.618,8.293-1.85,11.636c-1.234,3.345-2.89,6.151-4.966,8.423c-2.078,2.273-4.447,3.978-7.108,5.112
		c-2.663,1.135-5.389,1.704-8.179,1.704c-2.857,0-5.616-0.569-8.277-1.704c-2.663-1.135-5.015-2.839-7.06-5.112
		c-2.045-2.271-3.7-5.078-4.966-8.423C3.137,37.746,2.504,33.868,2.504,29.453z M24.705,52.92c2.337,0,4.316-0.581,5.94-1.745
		c1.622-1.162,2.953-2.779,3.992-4.849c1.038-2.069,1.801-4.542,2.288-7.419c0.487-2.875,0.73-6.028,0.73-9.454
		c0-3.427-0.244-6.577-0.73-9.454c-0.487-2.876-1.25-5.35-2.288-7.419c-1.039-2.069-2.371-3.686-3.992-4.849
		c-1.624-1.163-3.603-1.745-5.94-1.745c-2.273,0-4.236,0.582-5.891,1.745s-3.019,2.779-4.09,4.849
		c-1.071,2.069-1.85,4.543-2.337,7.419c-0.487,2.877-0.73,6.027-0.73,9.454c0,3.426,0.244,6.579,0.73,9.454
		c0.487,2.877,1.266,5.35,2.337,7.419c1.071,2.069,2.417,3.687,4.041,4.849C20.387,52.339,22.368,52.92,24.705,52.92z"/>
	<path fill="#FFFFFF" d="M91.016,37.729c0,2.402-0.504,4.723-1.509,6.963c-1.007,2.239-2.483,4.221-4.431,5.939
		c-1.947,1.721-4.35,3.101-7.206,4.139c-2.857,1.037-6.135,1.558-9.835,1.558c-2.468,0-4.708-0.292-6.719-0.876
		c-2.013-0.585-3.749-1.363-5.209-2.337s-2.597-2.109-3.408-3.408c-0.812-1.298-1.217-2.661-1.217-4.09
		c0-1.753,0.454-3.083,1.363-3.992c0.909-0.908,2.045-1.363,3.408-1.363c1.493,0,2.629,0.452,3.408,1.353
		c0.843,0.968,1.266,2.19,1.266,3.673c0,0.516-0.082,1.112-0.243,1.787c-0.163,0.676-0.244,1.272-0.244,1.788
		c0,1.353,0.697,2.367,2.094,3.043c1.395,0.677,3.229,1.015,5.501,1.015c4.933,0,8.552-1.228,10.857-3.685
		c2.303-2.456,3.457-6.271,3.457-11.443c0-2.844-0.633-4.928-1.899-6.253c-1.266-1.325-2.775-1.988-4.528-1.988
		c-0.715,0-1.509,0.113-2.385,0.341c-0.876,0.228-1.77,0.633-2.678,1.217l-3.7,2.337l-1.46-2.239l7.011-4.577
		c1.363-0.843,2.564-1.688,3.603-2.531c1.038-0.843,1.899-1.753,2.581-2.727s1.2-2.094,1.558-3.359
		c0.356-1.266,0.536-2.775,0.536-4.528c0-2.727-0.682-4.706-2.045-5.939c-1.363-1.232-3.181-1.851-5.453-1.851
		c-1.753,0-3.376,0.31-4.869,0.926c-1.494,0.617-2.76,1.445-3.798,2.482c-1.039,1.039-1.85,2.24-2.434,3.604
		c-0.584,1.363-0.876,2.792-0.876,4.284c0,3.376,1.46,5.063,4.382,5.063c1.427,0,2.678-0.453,3.749-1.363
		c1.071-0.908,2.028-2.143,2.873-3.7l1.752,0.974c-1.039,2.078-2.5,3.895-4.382,5.453c-1.883,1.558-4.22,2.337-7.011,2.337
		c-2.142,0-3.831-0.73-5.063-2.191c-1.234-1.46-1.85-3.325-1.85-5.599c0-2.077,0.502-4.041,1.509-5.892
		c1.006-1.85,2.386-3.488,4.138-4.917c1.753-1.427,3.764-2.547,6.038-3.359c2.271-0.811,4.674-1.217,7.206-1.217
		c1.947,0,3.797,0.194,5.55,0.584c1.752,0.39,3.294,0.99,4.625,1.802c1.33,0.812,2.386,1.883,3.165,3.213
		c0.779,1.331,1.168,2.97,1.168,4.917c0,3.247-1.056,5.843-3.165,7.79c-2.11,1.948-4.951,3.766-8.52,5.453v0.292
		c4.414-0.324,7.741,0.536,9.981,2.581C89.896,31.255,91.016,34.095,91.016,37.729z"/>
</g>
</svg>
