<?xml version="1.0" encoding="utf-8"?>
<!-- Generator: Adobe Illustrator 16.0.0, SVG Export Plug-In . SVG Version: 6.00 Build 0)  -->
<!DOCTYPE svg PUBLIC "-//W3C//DTD SVG 1.1//EN" "http://www.w3.org/Graphics/SVG/1.1/DTD/svg11.dtd">
<svg version="1.1" id="Layer_1" xmlns="http://www.w3.org/2000/svg" xmlns:xlink="http://www.w3.org/1999/xlink" x="0px" y="0px"
	 width="767px" height="248px" viewBox="0 -31 767 248" enable-background="new 0 -31 767 248" xml:space="preserve">
<g>
	<path fill="#FFFFFF" d="M42.934,94.252c6.765,0,12.657,0.728,18.039,4.728c5.893,4.438,9.311,11.494,9.311,19.567
		c0,8.074-3.346,15.059-9.746,19.568c-5.674,4-10.984,4.654-17.749,4.654H32.75V94.252H42.934z M40.17,135.787h3.2
		c3.637,0,8.656-0.291,12.875-3.42c3.346-2.545,6.619-7.199,6.619-13.82c0-6.4-3.055-11.42-6.547-13.966
		c-4.219-3.055-9.383-3.346-12.947-3.346h-3.2V135.787z"/>
	<path fill="#FFFFFF" d="M116.107,131.059h-20.73l-5.31,11.711h-8.001l24.148-51.354l22.986,51.354h-8.002L116.107,131.059z
		 M113.126,124.076l-7.201-16.44l-7.492,16.44H113.126z"/>
	<path fill="#FFFFFF" d="M155.456,94.252c2.982,0,7.129,0.291,10.62,2.618c4.073,2.691,6.037,7.347,6.037,11.785
		c0,2.836-0.728,7.202-4.728,10.62c-3.855,3.273-8.293,3.781-11.856,3.781h-3.347v19.713h-7.419V94.252H155.456z M152.183,116.221
		h3.347c6.4,0,9.456-3.129,9.456-7.64c0-2.691-1.092-7.492-9.529-7.492h-3.273V116.221z"/>
	<path fill="#FFFFFF" d="M196.552,113.457h20.803V94.252h7.42v48.517h-7.42v-22.33h-20.803v22.33h-7.42V94.252h7.42V113.457z"/>
	<path fill="#FFFFFF" d="M245.866,142.77V90.979l35.205,36.878V94.252h7.42v51.5l-35.206-36.88v33.897H245.866z"/>
	<path fill="#FFFFFF" d="M336.35,101.235h-19.349v12.294h18.767v6.982h-18.767v15.275h19.349v6.982h-26.768V94.252h26.768V101.235z"
		/>
	<path fill="#FFFFFF" d="M360.643,91.779l6.4,2.474l-9.02,17.966l-4.801-1.964L360.643,91.779z"/>
	<path fill="#FFFFFF" d="M406.902,105.017c-0.436-1.091-1.09-2.109-2.182-3.055c-1.527-1.236-3.127-1.746-5.236-1.746
		c-4.51,0-6.838,2.691-6.838,5.819c0,1.455,0.51,4,5.236,5.892l4.875,1.965c8.945,3.637,11.42,8.729,11.42,14.256
		c0,9.238-6.547,15.566-15.639,15.566c-5.602,0-8.947-2.109-11.42-4.873c-2.619-2.91-3.783-6.109-4.074-9.455l7.346-1.602
		c0,2.4,0.873,4.656,2.037,6.184c1.383,1.746,3.42,2.91,6.328,2.91c4.51,0,8.002-3.273,8.002-8.148c0-4.945-3.783-6.982-6.982-8.291
		l-4.656-1.965c-4-1.672-9.893-5.018-9.893-12.293c0-6.546,5.092-12.802,14.184-12.802c5.238,0,8.221,1.964,9.748,3.273
		c1.309,1.163,2.691,2.837,3.709,4.873L406.902,105.017z"/>
	<path fill="#FFFFFF" d="M471.816,94.252l12.801,32.443l13.094-34.771l12.656,34.771l13.238-32.443h8.002l-21.676,51.646
		l-12.656-34.407l-12.803,34.407l-20.658-51.646H471.816z"/>
	<path fill="#FFFFFF" d="M593.869,118.547c0,14.258-10.693,25.168-25.24,25.168c-14.549,0-25.24-10.91-25.24-25.168
		c0-14.256,10.691-25.167,25.24-25.167C583.176,93.379,593.869,104.291,593.869,118.547z M586.449,118.547
		c0-10.765-7.418-18.331-17.82-18.331s-17.82,7.566-17.82,18.331c0,10.766,7.418,18.332,17.82,18.332
		S586.449,129.312,586.449,118.547z"/>
	<path fill="#FFFFFF" d="M621.289,94.252c5.893,0,9.674,0.728,12.803,2.837c5.309,3.563,5.746,9.311,5.746,11.419
		c0,6.983-4.293,12.075-10.766,13.53l15.129,20.73h-8.947l-13.893-19.857h-1.309v19.857h-7.42V94.252H621.289z M620.053,116.512
		h2.328c2.035,0,10.328-0.219,10.328-7.931c0-6.836-6.475-7.492-10.111-7.492h-2.545V116.512z"/>
	<path fill="#FFFFFF" d="M668.348,94.252v41.535h14.258v6.982H660.93V94.252H668.348z"/>
	<path fill="#FFFFFF" d="M709.227,94.252c6.764,0,12.656,0.728,18.039,4.728c5.891,4.438,9.311,11.494,9.311,19.567
		c0,8.074-3.348,15.059-9.748,19.568c-5.674,4-10.982,4.654-17.748,4.654h-10.037V94.252H709.227z M706.461,135.787h3.201
		c3.637,0,8.656-0.291,12.875-3.42c3.346-2.545,6.619-7.199,6.619-13.82c0-6.4-3.055-11.42-6.547-13.966
		c-4.219-3.055-9.383-3.346-12.947-3.346h-3.201V135.787z"/>
	<path fill="#FFFFFF" d="M19.277,159.715c6.765,0,12.657,0.729,18.039,4.729c5.893,4.438,9.311,11.492,9.311,19.566
		s-3.346,15.057-9.746,19.566c-5.674,4.002-10.984,4.656-17.749,4.656H9.094v-48.518H19.277z M16.514,201.25h3.2
		c3.637,0,8.656-0.291,12.875-3.42c3.346-2.545,6.619-7.201,6.619-13.82c0-6.4-3.055-11.42-6.547-13.965
		c-4.219-3.057-9.383-3.348-12.947-3.348h-3.2V201.25z"/>
	<path fill="#FFFFFF" d="M113.545,184.01c0,14.258-10.693,25.168-25.24,25.168c-14.548,0-25.241-10.91-25.241-25.168
		c0-14.256,10.693-25.168,25.241-25.168C102.852,158.842,113.545,169.754,113.545,184.01z M106.125,184.01
		c0-10.766-7.419-18.33-17.82-18.33c-10.402,0-17.821,7.564-17.821,18.33s7.419,18.33,17.821,18.33
		C98.706,202.34,106.125,194.775,106.125,184.01z"/>
	<path fill="#FFFFFF" d="M129.399,208.232l10.184-52.154l16.875,37.68l17.021-37.68l9.165,52.154h-7.565l-4.945-29.242
		l-14.111,31.496l-13.966-31.568l-5.092,29.314H129.399z"/>
	<path fill="#FFFFFF" d="M209.699,159.715v48.518h-7.419v-48.518H209.699z"/>
	<path fill="#FFFFFF" d="M230.792,208.232v-51.791l35.206,36.879v-33.605h7.419v51.5l-35.205-36.879v33.896H230.792z"/>
	<path fill="#FFFFFF" d="M323.021,196.521h-20.73l-5.31,11.711h-8.001l24.148-51.354l22.986,51.354h-8.002L323.021,196.521z
		 M320.04,189.539l-7.201-16.439l-7.492,16.439H320.04z"/>
	<path fill="#FFFFFF" d="M362.226,166.697v41.535h-7.419v-41.535h-11.129v-6.982h29.677v6.982H362.226z"/>
	<path fill="#FFFFFF" d="M396.775,159.715v48.518h-7.42v-48.518H396.775z"/>
	<path fill="#FFFFFF" d="M466.02,184.01c0,14.258-10.691,25.168-25.24,25.168c-14.547,0-25.24-10.91-25.24-25.168
		c0-14.256,10.693-25.168,25.24-25.168C455.328,158.842,466.02,169.754,466.02,184.01z M458.602,184.01
		c0-10.766-7.42-18.33-17.822-18.33c-10.4,0-17.82,7.564-17.82,18.33s7.42,18.33,17.82,18.33
		C451.182,202.34,458.602,194.775,458.602,184.01z"/>
	<path fill="#FFFFFF" d="M484.785,208.232v-51.791l35.205,36.879v-33.605h7.42v51.5l-35.207-36.879v33.896H484.785z"/>
	<path fill="#FFFFFF" d="M585.596,159.715c2.982,0,7.127,0.291,10.619,2.619c4.074,2.691,6.037,7.346,6.037,11.783
		c0,2.838-0.727,7.201-4.729,10.621c-3.854,3.271-8.291,3.781-11.855,3.781h-3.346v19.713h-7.42v-48.518H585.596z M582.322,181.682
		h3.346c6.4,0,9.455-3.127,9.455-7.637c0-2.691-1.09-7.492-9.527-7.492h-3.273V181.682z"/>
	<path fill="#FFFFFF" d="M626.689,159.715v41.535h14.258v6.982h-21.676v-48.518H626.689z"/>
	<path fill="#FFFFFF" d="M686.625,196.521h-20.73l-5.311,11.711h-8l24.148-51.354l22.986,51.354h-8.002L686.625,196.521z
		 M683.643,189.539l-7.201-16.439l-7.492,16.439H683.643z"/>
	<path fill="#FFFFFF" d="M715.281,208.232v-51.791l35.205,36.879v-33.605h7.42v51.5l-35.207-36.879v33.896H715.281z"/>
</g>
<g>
	<path fill="#FFFFFF" d="M383.5-25.215l-22.87,39.617h45.74L383.5-25.215z M392.655-4.307l-2.145,3.447l-2.177-3.728l2.214-3.369
		L392.655-4.307z M389.159-10.362l-2.223,3.381l-2.206-3.78l2.178-3.501L389.159-10.362z M385.415-4.665l-2.52,3.832l-2.073-3.648
		l2.425-3.897L385.415-4.665z M383.5-20.166l2.193,3.799l-0.287-0.178l-2.091,3.361l-1.934-3.312L383.5-20.166z M379.952-14.021
		l1.88,3.22l-2.404,3.866l-1.769-3.112L379.952-14.021z M376.221-7.555l1.715,3.017L375.6-0.784l-1.726-2.707L376.221-7.555z
		 M372.476-1.111l3.15,4.961l3.705-5.944l3.411,6.008l4.07-6.188l3.63,6.22l3.619-5.858l8.01,13.833h-37.143L372.476-1.111z"/>
</g>
<text transform="matrix(1 0 0 1 431.3262 117.0918)" fill="#FFFFFF" font-family="'FuturaPT-Book'" font-size="14.8941" letter-spacing="1">20</text>
<text transform="matrix(0.9485 0 0 1 431.5225 132.5957)"><tspan x="0" y="0" fill="#FFFFFF" font-family="'FuturaPT-Book'" font-size="14.8941" letter-spacing="2.109">1</tspan><tspan x="11.111" y="0" fill="#FFFFFF" font-family="'FuturaPT-Book'" font-size="14.8941" letter-spacing="1.054">6</tspan></text>
<rect x="366.929" y="44.92" fill="#FFFFFF" width="31.847" height="2.482"/>
</svg>
