<?xml version="1.0" encoding="utf-8"?>
<!-- Generator: Adobe Illustrator 16.0.0, SVG Export Plug-In . SVG Version: 6.00 Build 0)  -->
<!DOCTYPE svg PUBLIC "-//W3C//DTD SVG 1.1//EN" "http://www.w3.org/Graphics/SVG/1.1/DTD/svg11.dtd">
<svg version="1.1" id="Layer_1" xmlns="http://www.w3.org/2000/svg" xmlns:xlink="http://www.w3.org/1999/xlink" x="0px" y="0px"
	 width="95px" height="95px" viewBox="0 0 95 95" enable-background="new 0 0 95 95" xml:space="preserve">
<path fill="#1B1B1C" d="M47.302,86.377c-21.146,0-38.351-17.205-38.351-38.354c0-21.146,17.204-38.351,38.351-38.351
	c21.147,0,38.352,17.205,38.352,38.351C85.653,69.172,68.449,86.377,47.302,86.377z M47.302,11.491
	c-20.145,0-36.532,16.389-36.532,36.533c0,20.146,16.388,36.535,36.532,36.535c20.146,0,36.533-16.389,36.533-36.535
	C83.835,27.879,67.447,11.491,47.302,11.491z"/>
<path fill="#1B1B1C" d="M47.302,72.648c-13.577,0-24.623-11.047-24.623-24.625c0-13.577,11.046-24.624,24.623-24.624
	c13.578,0,24.624,11.046,24.624,24.624C71.926,61.602,60.88,72.648,47.302,72.648z M47.302,25.218
	c-12.574,0-22.805,10.231-22.805,22.805c0,12.576,10.23,22.807,22.805,22.807c12.575,0,22.806-10.23,22.806-22.807
	C70.107,35.449,59.877,25.218,47.302,25.218z"/>
</svg>
