<?xml version="1.0" encoding="utf-8"?>
<!-- Generator: Adobe Illustrator 16.0.0, SVG Export Plug-In . SVG Version: 6.00 Build 0)  -->
<!DOCTYPE svg PUBLIC "-//W3C//DTD SVG 1.1//EN" "http://www.w3.org/Graphics/SVG/1.1/DTD/svg11.dtd">
<svg version="1.1" id="Layer_2" xmlns="http://www.w3.org/2000/svg" xmlns:xlink="http://www.w3.org/1999/xlink" x="0px" y="0px"
	 width="42px" height="42px" viewBox="0 0 42 42" enable-background="new 0 0 42 42" xml:space="preserve">
<g>
	<path fill="#999999" d="M20.723,1C9.806,1,0.924,9.787,0.924,20.588c0,10.803,8.882,19.59,19.799,19.59s19.799-8.787,19.799-19.59
		C40.522,9.787,31.641,1,20.723,1z M20.723,39.221c-10.385,0-18.833-8.357-18.833-18.633c0-10.274,8.449-18.632,18.833-18.632
		c10.384,0,18.833,8.358,18.833,18.632C39.557,30.863,31.107,39.221,20.723,39.221z"/>
	<path fill="#999999" d="M23.02,14.728c0.699,0,1.448,0.214,1.448,0.214l0.449-2.634c0,0-0.954-0.32-3.221-0.32
		c-1.392,0-2.201,0.524-2.791,1.295c-0.559,0.728-0.579,1.903-0.579,2.666v1.728H16.53v2.574h1.797v8.938h3.369V20.25h2.666
		l0.2-2.574h-2.866v-2.009C21.696,14.976,22.32,14.728,23.02,14.728z"/>
</g>
</svg>
