<?xml version="1.0" encoding="utf-8"?>
<!-- Generator: Adobe Illustrator 16.0.0, SVG Export Plug-In . SVG Version: 6.00 Build 0)  -->
<!DOCTYPE svg PUBLIC "-//W3C//DTD SVG 1.1//EN" "http://www.w3.org/Graphics/SVG/1.1/DTD/svg11.dtd">
<svg version="1.1" id="Layer_1" xmlns="http://www.w3.org/2000/svg" xmlns:xlink="http://www.w3.org/1999/xlink" x="0px" y="0px"
	 width="45.375px" height="45.5px" viewBox="0 0 45.375 45.5" enable-background="new 0 0 45.375 45.5" xml:space="preserve">
<g>
	<path fill="#C6C6C6" d="M24.361,29.074c0,1.132,0.031,1.964,0.096,2.501c0.062,0.541,0.212,1.044,0.443,1.505
		c0.203,0.406,0.449,0.723,0.729,0.943c0.281,0.216,0.628,0.392,1.039,0.518c0.334,0.132,0.797,0.207,1.388,0.234v0.809H16.893
		v-0.809c0.566-0.027,1.027-0.104,1.386-0.234c0.409-0.126,0.756-0.302,1.04-0.518c0.281-0.222,0.523-0.537,0.73-0.943
		c0.231-0.461,0.379-0.964,0.443-1.505c0.062-0.537,0.096-1.369,0.096-2.501V16.756c0-1.128-0.033-1.963-0.096-2.502
		c-0.064-0.539-0.212-1.04-0.443-1.501c-0.204-0.411-0.449-0.724-0.73-0.943c-0.284-0.219-0.631-0.391-1.04-0.52
		c-0.358-0.101-0.819-0.177-1.386-0.23v-0.81h11.164v0.809c-0.593,0.05-1.055,0.127-1.387,0.23c-0.409,0.13-0.756,0.301-1.039,0.52
		c-0.283,0.219-0.525,0.532-0.73,0.943c-0.23,0.462-0.381,0.962-0.442,1.501c-0.063,0.54-0.097,1.372-0.097,2.502V29.074
		L24.361,29.074z"/>
</g>
</svg>
