<?xml version="1.0" encoding="utf-8"?>
<!-- Generator: Adobe Illustrator 16.0.0, SVG Export Plug-In . SVG Version: 6.00 Build 0)  -->
<!DOCTYPE svg PUBLIC "-//W3C//DTD SVG 1.1//EN" "http://www.w3.org/Graphics/SVG/1.1/DTD/svg11.dtd">
<svg version="1.1" id="Layer_1" xmlns="http://www.w3.org/2000/svg" xmlns:xlink="http://www.w3.org/1999/xlink" x="0px" y="0px"
	 width="45.375px" height="45.5px" viewBox="0 0 45.375 45.5" enable-background="new 0 0 45.375 45.5" xml:space="preserve">
<g>
	<path fill="#C6C6C6" d="M18.027,29.074c0,1.132,0.032,1.964,0.096,2.501c0.062,0.541,0.212,1.044,0.444,1.505
		c0.204,0.406,0.449,0.723,0.73,0.943c0.281,0.216,0.628,0.392,1.039,0.518c0.334,0.132,0.797,0.207,1.387,0.234v0.809H10.559
		v-0.809c0.566-0.027,1.028-0.104,1.386-0.234c0.409-0.126,0.756-0.302,1.04-0.518c0.281-0.222,0.524-0.537,0.73-0.943
		c0.231-0.461,0.378-0.964,0.443-1.505c0.062-0.537,0.096-1.369,0.096-2.501V16.756c0-1.128-0.034-1.963-0.096-2.502
		c-0.065-0.539-0.212-1.04-0.443-1.501c-0.204-0.411-0.45-0.724-0.73-0.943c-0.284-0.219-0.631-0.391-1.04-0.52
		c-0.358-0.101-0.82-0.177-1.386-0.23v-0.81h11.164v0.809c-0.593,0.05-1.055,0.127-1.387,0.23c-0.409,0.13-0.756,0.301-1.039,0.52
		c-0.283,0.219-0.526,0.532-0.73,0.943c-0.231,0.462-0.381,0.962-0.444,1.501c-0.063,0.54-0.096,1.372-0.096,2.502V29.074z"/>
	<path fill="#C6C6C6" d="M31.426,29.074c0,1.132,0.028,1.964,0.094,2.501c0.065,0.541,0.213,1.044,0.443,1.505
		c0.205,0.406,0.45,0.723,0.732,0.943c0.281,0.216,0.632,0.392,1.041,0.518c0.332,0.132,0.793,0.207,1.384,0.234v0.809H23.952
		v-0.809c0.565-0.027,1.028-0.104,1.386-0.234c0.414-0.126,0.756-0.302,1.04-0.518c0.28-0.222,0.526-0.537,0.733-0.943
		c0.23-0.461,0.381-0.964,0.44-1.505c0.066-0.537,0.101-1.369,0.101-2.501V16.756c0-1.128-0.033-1.963-0.101-2.502
		c-0.059-0.539-0.21-1.04-0.44-1.501c-0.207-0.411-0.453-0.724-0.733-0.943c-0.282-0.219-0.626-0.391-1.04-0.52
		c-0.357-0.101-0.82-0.177-1.386-0.23v-0.81h11.166v0.809c-0.593,0.05-1.054,0.127-1.386,0.23c-0.409,0.13-0.756,0.301-1.039,0.52
		c-0.285,0.219-0.527,0.532-0.733,0.943c-0.229,0.462-0.375,0.962-0.444,1.501c-0.063,0.54-0.092,1.372-0.092,2.502v12.318
		L31.426,29.074L31.426,29.074z"/>
</g>
</svg>
