<?xml version="1.0" encoding="utf-8"?>
<!-- Generator: Adobe Illustrator 16.0.0, SVG Export Plug-In . SVG Version: 6.00 Build 0)  -->
<!DOCTYPE svg PUBLIC "-//W3C//DTD SVG 1.1//EN" "http://www.w3.org/Graphics/SVG/1.1/DTD/svg11.dtd">
<svg version="1.1" id="Layer_1" xmlns="http://www.w3.org/2000/svg" xmlns:xlink="http://www.w3.org/1999/xlink" x="0px" y="0px"
	 width="42px" height="42px" viewBox="0 0 42 42" enable-background="new 0 0 42 42" xml:space="preserve">
<g>
	<path fill="#999999" d="M20.723,1C9.806,1,0.923,9.788,0.923,20.589c0,10.802,8.882,19.589,19.799,19.589
		c10.918,0,19.801-8.787,19.801-19.589C40.523,9.788,31.641,1,20.723,1z M20.723,39.223c-10.385,0-18.833-8.359-18.833-18.634
		S10.338,1.956,20.723,1.956c10.386,0,18.834,8.359,18.834,18.633S31.108,39.223,20.723,39.223z"/>
	<path fill="#999999" d="M26.059,11.995H15.393c-1.852,0-3.36,1.49-3.36,3.321v3.508v7.037c0,1.832,1.508,3.322,3.36,3.322h10.666
		c1.852,0,3.359-1.49,3.359-3.322v-7.037v-3.508C29.418,13.485,27.91,11.995,26.059,11.995z M27.021,13.977l0.384-0.002v0.379v2.534
		l-2.937,0.011l-0.01-2.914L27.021,13.977z M18.245,18.824c0.555-0.762,1.459-1.262,2.48-1.262s1.925,0.5,2.481,1.262
		c0.362,0.498,0.581,1.105,0.581,1.765c0,1.669-1.374,3.024-3.062,3.024s-3.06-1.355-3.06-3.024
		C17.665,19.929,17.882,19.322,18.245,18.824z M27.725,25.861c0,0.908-0.748,1.646-1.666,1.646H15.393
		c-0.919,0-1.666-0.738-1.666-1.646v-7.037h2.595c-0.224,0.546-0.35,1.141-0.35,1.765c0,2.593,2.132,4.7,4.753,4.7
		c2.622,0,4.753-2.107,4.753-4.7c0-0.624-0.127-1.219-0.35-1.765h2.596V25.861z"/>
</g>
</svg>
