<?xml version="1.0" encoding="utf-8"?>
<!-- Generator: Adobe Illustrator 16.0.0, SVG Export Plug-In . SVG Version: 6.00 Build 0)  -->
<!DOCTYPE svg PUBLIC "-//W3C//DTD SVG 1.1//EN" "http://www.w3.org/Graphics/SVG/1.1/DTD/svg11.dtd">
<svg version="1.1" id="Layer_1" xmlns="http://www.w3.org/2000/svg" xmlns:xlink="http://www.w3.org/1999/xlink" x="0px" y="0px"
	 width="95px" height="95px" viewBox="0 0 95 95" enable-background="new 0 0 95 95" xml:space="preserve">
<g>
	<path fill="#1B1B1C" d="M43.604,9.176c-0.414,0-0.75,0.335-0.75,0.75v16.933c0,2.205-1.609,4.029-3.712,4.39V9.926
		c0-0.415-0.336-0.75-0.75-0.75s-0.75,0.335-0.75,0.75v21.323c-2.106-0.358-3.719-2.183-3.719-4.39V9.926
		c0-0.415-0.336-0.75-0.75-0.75s-0.75,0.335-0.75,0.75v16.933c0,3.036,2.281,5.544,5.219,5.913v14.462
		c-2.354,0.365-4.167,2.387-4.167,4.841v29.834c0,2.71,2.206,4.916,4.917,4.916s4.917-2.206,4.917-4.916V52.074
		c0-2.454-1.813-4.476-4.167-4.841V32.771c2.934-0.372,5.212-2.878,5.212-5.913V9.926C44.354,9.511,44.019,9.176,43.604,9.176z
		 M41.81,52.074v29.834c0,1.883-1.533,3.416-3.417,3.416s-3.417-1.533-3.417-3.416V52.074c0-1.885,1.533-3.417,3.417-3.417
		S41.81,50.189,41.81,52.074z"/>
	<path fill="#1B1B1C" d="M61.576,18.66c0.005-1.363-0.211-3.978-1.706-6.167c-1.477-2.162-3.827-3.308-6.797-3.317
		c0,0-0.001,0-0.002,0c-0.198,0-0.389,0.078-0.529,0.219c-0.142,0.14-0.221,0.332-0.221,0.531v38.706
		c-0.873,0.888-1.415,2.103-1.415,3.442v29.834c0,2.71,2.206,4.916,4.917,4.916s4.917-2.206,4.917-4.916V52.074
		c0-1.548-0.733-2.914-1.855-3.816c0.904-1.29,2.676-4.456,2.687-9.474c0.006-2.942,0.004-6.193,0.001-9.433
		C61.568,25.606,61.565,21.876,61.576,18.66z M59.24,81.908c0,1.883-1.533,3.416-3.417,3.416s-3.417-1.533-3.417-3.416V52.074
		c0-1.885,1.533-3.417,3.417-3.417s3.417,1.532,3.417,3.417V81.908z M60.072,29.353c0.003,3.238,0.005,6.487-0.001,9.428
		c-0.01,4.751-1.759,7.692-2.489,8.716c-0.548-0.211-1.138-0.339-1.759-0.339c-0.714,0-1.389,0.161-2.002,0.436V10.706
		c2.116,0.171,3.732,1.055,4.81,2.633c1.268,1.854,1.449,4.126,1.445,5.316C60.065,21.874,60.068,25.605,60.072,29.353z"/>
</g>
</svg>
