<?xml version="1.0" encoding="utf-8"?>
<!-- Generator: Adobe Illustrator 16.0.0, SVG Export Plug-In . SVG Version: 6.00 Build 0)  -->
<!DOCTYPE svg PUBLIC "-//W3C//DTD SVG 1.1//EN" "http://www.w3.org/Graphics/SVG/1.1/DTD/svg11.dtd">
<svg version="1.1" id="Layer_1" xmlns="http://www.w3.org/2000/svg" xmlns:xlink="http://www.w3.org/1999/xlink" x="0px" y="0px"
	 width="279.085px" height="60.785px" viewBox="0 0 279.085 60.785" enable-background="new 0 0 279.085 60.785"
	 xml:space="preserve">
<rect x="20" y="19.173" fill="#0A123A" width="3.363" height="21.858"/>
<path fill="#0A123A" d="M154.054,41.205c-6.122,0-11.103-4.98-11.103-11.102c0-6.123,4.98-11.104,11.103-11.104
	s11.103,4.98,11.103,11.104C165.157,36.225,160.176,41.205,154.054,41.205z M154.054,21.882c-4.532,0-8.221,3.688-8.221,8.221
	c0,4.531,3.688,8.219,8.221,8.219c4.533,0,8.22-3.688,8.22-8.219C162.274,25.57,158.587,21.882,154.054,21.882z"/>
<polygon fill="#0A123A" points="87.069,21.97 84.691,19.592 76.198,28.085 76.198,28.085 73.82,30.463 76.198,32.842 76.198,32.84 
	84.69,41.334 87.069,38.955 78.576,30.463 "/>
<rect x="217.755" y="19.173" fill="#0A123A" width="3.363" height="21.858"/>
</svg>
