<?xml version="1.0" encoding="utf-8"?>
<!-- Generator: Adobe Illustrator 16.0.0, SVG Export Plug-In . SVG Version: 6.00 Build 0)  -->
<!DOCTYPE svg PUBLIC "-//W3C//DTD SVG 1.1//EN" "http://www.w3.org/Graphics/SVG/1.1/DTD/svg11.dtd">
<svg version="1.1" id="Layer_1" xmlns="http://www.w3.org/2000/svg" xmlns:xlink="http://www.w3.org/1999/xlink" x="0px" y="0px"
	 width="328px" height="313px" viewBox="0 -37.833 328 313" enable-background="new 0 -37.833 328 313" xml:space="preserve">
<g>
	<path fill="#FFFFFF" d="M96.457,109.403c-1.836,2.481-4.09,4.58-6.758,6.299c-2.668,1.72-5.59,3.006-8.766,3.856
		c-5.423,1.453-9.636,0.902-12.64-1.652c-3.003-2.555-4.548-7.03-4.634-13.424v-8.491c0-6.503,1.42-11.891,4.262-16.163
		c2.841-4.271,6.984-7.138,12.429-8.597c5.12-1.372,8.981-1.143,11.585,0.688c2.604,1.83,4.11,5.391,4.521,10.682l-9.27,2.483
		c-0.258-2.933-0.885-4.812-1.878-5.637c-0.995-0.825-2.55-0.954-4.668-0.386c-2.572,0.688-4.439,2.128-5.606,4.321
		c-1.167,2.192-1.771,5.347-1.814,9.463v8.556c0,4.3,0.643,7.255,1.928,8.865c1.285,1.611,3.397,2.022,6.336,1.235
		c1.879-0.503,3.402-1.29,4.569-2.358l0.843-0.809v-8.654l-6.677,1.789v-7.194l16.237-4.351V109.403z"/>
	<path fill="#FFFFFF" d="M134.827,104.47l-9.496,2.545V86.824l-14.066,3.769v20.191l-9.528,2.553V66.15l9.528-2.553v19.088
		l14.066-3.769V59.827l9.496-2.544V104.47z"/>
	<path fill="#FFFFFF" d="M174.232,74.563c0,6.331-1.495,11.646-4.488,15.949c-2.992,4.302-7.146,7.165-12.46,8.589
		c-5.293,1.418-9.452,0.799-12.477-1.859c-3.025-2.657-4.56-7.101-4.603-13.335v-8.069c0-6.481,1.501-11.945,4.505-16.39
		c3.003-4.446,7.173-7.383,12.51-8.813c5.25-1.406,9.387-0.727,12.412,2.038c3.025,2.766,4.559,7.373,4.602,13.82V74.563z
		 M164.672,69.217c0-4.255-0.605-7.259-1.813-9.009c-1.211-1.75-3.091-2.283-5.64-1.6c-2.528,0.677-4.397,2.178-5.607,4.5
		c-1.21,2.323-1.836,5.531-1.879,9.626v8.394c0,4.127,0.615,7.002,1.847,8.628c1.231,1.626,3.132,2.094,5.704,1.405
		c2.484-0.666,4.331-2.117,5.542-4.353c1.209-2.236,1.825-5.367,1.846-9.392V69.217z"/>
	<path fill="#FFFFFF" d="M198.215,75.105c0-1.923-0.491-3.244-1.474-3.964s-2.771-1.261-5.364-1.626
		c-4.73-0.525-8.134-1.714-10.21-3.568c-2.073-1.853-3.109-4.422-3.109-7.706c0-3.975,1.409-7.545,4.229-10.71
		c2.819-3.164,6.399-5.329,10.741-6.492c2.896-0.776,5.479-0.856,7.747-0.244c2.27,0.613,4.013,1.869,5.234,3.767
		c1.221,1.898,1.831,4.262,1.831,7.092l-9.495,2.544c0-2.204-0.471-3.757-1.41-4.662c-0.941-0.903-2.296-1.118-4.067-0.644
		c-1.664,0.446-2.96,1.285-3.89,2.517c-0.928,1.232-1.394,2.68-1.394,4.344c0,1.296,0.521,2.33,1.557,3.1
		c1.037,0.771,2.872,1.363,5.508,1.78c4.603,0.431,7.947,1.577,10.03,3.438c2.085,1.86,3.129,4.66,3.129,8.399
		c0,4.105-1.309,7.664-3.923,10.676s-6.168,5.12-10.662,6.324c-3.045,0.817-5.822,0.933-8.329,0.352s-4.468-1.849-5.881-3.804
		c-1.416-1.954-2.123-4.519-2.123-7.695l9.561-2.562c0,2.723,0.53,4.558,1.589,5.506s2.785,1.101,5.184,0.458
		C196.551,80.833,198.215,78.627,198.215,75.105z"/>
	<path fill="#FFFFFF" d="M241.901,36.533l-11.666,3.126v39.247l-9.561,2.562V42.22l-11.476,3.074v-7.94l32.702-8.762V36.533z"/>
	<path fill="#FFFFFF" d="M84.303,165.363c0-1.921-0.491-3.244-1.474-3.965c-0.983-0.719-2.771-1.26-5.364-1.623
		c-4.731-0.526-8.135-1.715-10.208-3.569c-2.075-1.853-3.111-4.423-3.111-7.706c0-3.974,1.41-7.545,4.229-10.71
		c2.82-3.165,6.4-5.329,10.744-6.491c2.895-0.777,5.477-0.857,7.746-0.244c2.269,0.612,4.013,1.867,5.234,3.766
		c1.221,1.897,1.831,4.263,1.831,7.093l-9.496,2.544c0-2.203-0.47-3.755-1.41-4.661c-0.94-0.904-2.296-1.118-4.067-0.645
		c-1.664,0.445-2.96,1.286-3.889,2.518c-0.93,1.231-1.394,2.68-1.394,4.344c0,1.294,0.519,2.329,1.556,3.098
		c1.037,0.771,2.873,1.365,5.509,1.781c4.602,0.431,7.946,1.578,10.03,3.437c2.086,1.862,3.127,4.663,3.127,8.399
		c0,4.105-1.307,7.665-3.92,10.678c-2.615,3.011-6.169,5.118-10.663,6.324c-3.046,0.815-5.823,0.933-8.329,0.351
		c-2.506-0.58-4.467-1.849-5.882-3.804c-1.416-1.954-2.124-4.52-2.124-7.694l9.561-2.562c0,2.723,0.529,4.559,1.587,5.507
		c1.059,0.947,2.788,1.1,5.187,0.456C82.64,171.09,84.303,168.885,84.303,165.363z"/>
	<path fill="#FFFFFF" d="M111.655,144.421l7.097-23.095l10.372-2.779l-12.64,33.46v17.113l-9.657,2.587v-17.111l-12.672-26.68
		l10.371-2.778L111.655,144.421z"/>
	<path fill="#FFFFFF" d="M150.06,147.745c0-1.923-0.492-3.246-1.475-3.967c-0.983-0.719-2.771-1.26-5.363-1.623
		c-4.732-0.525-8.135-1.714-10.209-3.568c-2.074-1.854-3.11-4.423-3.11-7.706c0-3.977,1.41-7.545,4.229-10.71
		c2.819-3.164,6.401-5.328,10.743-6.492c2.895-0.776,5.478-0.856,7.746-0.244c2.27,0.613,4.014,1.869,5.235,3.767
		c1.219,1.899,1.832,4.263,1.832,7.093l-9.496,2.543c0-2.202-0.471-3.756-1.41-4.66c-0.94-0.904-2.296-1.119-4.067-0.645
		c-1.665,0.445-2.961,1.285-3.89,2.518c-0.928,1.231-1.393,2.679-1.393,4.342c0,1.297,0.519,2.331,1.555,3.1
		c1.037,0.771,2.873,1.364,5.51,1.781c4.602,0.431,7.945,1.578,10.031,3.438c2.084,1.861,3.127,4.66,3.127,8.398
		c0,4.105-1.308,7.664-3.922,10.677c-2.614,3.011-6.169,5.12-10.662,6.325c-3.047,0.816-5.823,0.933-8.329,0.351
		c-2.507-0.58-4.468-1.849-5.882-3.803c-1.416-1.955-2.123-4.52-2.123-7.695l9.562-2.562c0,2.723,0.529,4.559,1.587,5.507
		c1.058,0.948,2.787,1.1,5.185,0.456C148.395,153.471,150.06,151.265,150.06,147.745z"/>
	<path fill="#FFFFFF" d="M193.745,109.171l-11.666,3.126v39.248l-9.562,2.561v-39.247l-11.473,3.074v-7.94l32.7-8.762V109.171z"/>
	<path fill="#FFFFFF" d="M222.133,120.395l-14.842,3.978v12.508l17.565-4.706v7.907l-27.094,7.26v-47.186l27.028-7.243v7.94
		l-17.5,4.689v11.149l14.842-3.978V120.395z"/>
	<path fill="#FFFFFF" d="M241.316,88.485l8.912,31.738l8.881-36.506l12.444-3.335v47.187l-9.559,2.562v-12.77l0.874-19.907
		l-9.432,34.969l-6.482,1.735l-9.43-29.914l0.874,19.438v12.768l-9.528,2.554V91.819L241.316,88.485z"/>
	<path fill="#FFFFFF" d="M297.674,108.191c0-1.923-0.493-3.244-1.476-3.964c-0.982-0.719-2.771-1.261-5.364-1.625
		c-4.73-0.526-8.133-1.714-10.207-3.568c-2.074-1.853-3.11-4.421-3.11-7.706c0-3.975,1.409-7.544,4.229-10.71
		c2.817-3.164,6.4-5.329,10.742-6.493c2.894-0.775,5.476-0.856,7.744-0.244c2.271,0.613,4.016,1.869,5.236,3.767
		c1.219,1.899,1.831,4.263,1.831,7.093l-9.495,2.544c0-2.203-0.473-3.757-1.412-4.661s-2.296-1.119-4.067-0.645
		c-1.664,0.446-2.96,1.286-3.89,2.517c-0.928,1.231-1.391,2.679-1.391,4.343c0,1.297,0.518,2.33,1.554,3.1
		c1.037,0.771,2.875,1.364,5.511,1.781c4.602,0.432,7.944,1.577,10.031,3.438c2.083,1.861,3.127,4.661,3.127,8.398
		c0,4.105-1.309,7.664-3.923,10.677c-2.614,3.012-6.168,5.119-10.662,6.324c-3.047,0.815-5.822,0.932-8.329,0.351
		c-2.506-0.58-4.468-1.849-5.883-3.804c-1.416-1.953-2.121-4.52-2.121-7.695l9.561-2.562c0,2.722,0.528,4.557,1.587,5.504
		c1.059,0.948,2.788,1.102,5.186,0.459C296.01,113.919,297.674,111.712,297.674,108.191z"/>
	<path fill="#FFFFFF" d="M78.664,221.747l-4.731,1.268v17.243l-9.528,2.553v-47.187l15.2-4.074c4.774-1.278,8.464-1.03,11.068,0.747
		c2.603,1.777,3.905,4.943,3.905,9.502c0,6.267-2.28,11.262-6.839,14.989l8.265,17.102v0.455l-10.241,2.742L78.664,221.747z
		 M73.933,215.075l5.412-1.449c1.901-0.509,3.327-1.524,4.277-3.043c0.951-1.518,1.427-3.336,1.427-5.453
		c0-4.731-1.848-6.604-5.542-5.612l-5.574,1.493V215.075z"/>
	<path fill="#FFFFFF" d="M122.187,217.668l-12.996,3.483l-2.528,10.335l-10.079,2.701l14.746-51.139l8.717-2.335l14.843,43.21
		l-10.175,2.725L122.187,217.668z M111.265,212.656l8.815-2.361l-4.407-15.639L111.265,212.656z"/>
	<path fill="#FFFFFF" d="M149.376,207.078l7.94-36.351l10.63-2.849l-13.612,50.833l-9.917,2.658l-13.515-43.565l10.565-2.831
		L149.376,207.078z"/>
	<path fill="#FFFFFF" d="M193.971,187.674l-14.844,3.979v12.509l17.566-4.705v7.907l-27.095,7.259v-47.187l27.029-7.242v7.939
		l-17.501,4.689v11.149l14.844-3.977V187.674z"/>
</g>
<polygon fill="#FFFFFF" points="306.454,210.731 63.825,275.745 63.825,262.076 306.454,197.063 "/>
<polygon fill="#FFFFFF" points="306.454,-9.984 63.825,55.03 63.825,41.361 306.454,-23.652 "/>
</svg>
