<?xml version="1.0" encoding="utf-8"?>
<!-- Generator: Adobe Illustrator 16.0.0, SVG Export Plug-In . SVG Version: 6.00 Build 0)  -->
<!DOCTYPE svg PUBLIC "-//W3C//DTD SVG 1.1//EN" "http://www.w3.org/Graphics/SVG/1.1/DTD/svg11.dtd">
<svg version="1.1" id="Layer_3" xmlns="http://www.w3.org/2000/svg" xmlns:xlink="http://www.w3.org/1999/xlink" x="0px" y="0px"
	 width="42px" height="42px" viewBox="0 0 42 42" enable-background="new 0 0 42 42" xml:space="preserve">
<g>
	<path fill="#999999" d="M20.665,0.999c-10.917,0-19.799,8.788-19.799,19.589c0,10.802,8.882,19.589,19.799,19.589
		c10.917,0,19.8-8.787,19.8-19.589C40.465,9.787,31.582,0.999,20.665,0.999z M20.665,39.222c-10.385,0-18.833-8.359-18.833-18.634
		S10.28,1.955,20.665,1.955c10.386,0,18.834,8.359,18.834,18.633S31.051,39.222,20.665,39.222z"/>
	<path fill="#999999" d="M31.023,13.757H10.308c-0.381,0-0.69,0.306-0.69,0.683v12.297c0,0.378,0.31,0.683,0.69,0.683h20.715
		c0.381,0,0.689-0.305,0.689-0.683V14.439C31.713,14.063,31.404,13.757,31.023,13.757z M28.812,15.123l-8.147,5.003l-8.147-5.003
		H28.812z M30.332,26.054H10.999V15.797l9.667,5.936l9.667-5.936V26.054z"/>
</g>
</svg>
