<?xml version="1.0" encoding="utf-8"?>
<!-- Generator: Adobe Illustrator 16.0.0, SVG Export Plug-In . SVG Version: 6.00 Build 0)  -->
<!DOCTYPE svg PUBLIC "-//W3C//DTD SVG 1.1//EN" "http://www.w3.org/Graphics/SVG/1.1/DTD/svg11.dtd">
<svg version="1.1" id="Layer_3" xmlns="http://www.w3.org/2000/svg" xmlns:xlink="http://www.w3.org/1999/xlink" x="0px" y="0px"
	 width="42px" height="42px" viewBox="0 0 42 42" enable-background="new 0 0 42 42" xml:space="preserve">
<g>
	<path fill="#999999" d="M21.179,9.752c-5.978,0-8.992,4.24-8.992,7.776c0,2.141,0.819,4.047,2.577,4.756
		c0.288,0.117,0.546,0.004,0.63-0.311c0.058-0.219,0.195-0.771,0.257-1c0.084-0.312,0.052-0.422-0.181-0.693
		c-0.506-0.592-0.83-1.358-0.83-2.442c0-3.146,2.379-5.962,6.195-5.962c3.378,0,5.235,2.042,5.235,4.771
		c0,3.589-1.605,6.619-3.988,6.619c-1.317,0-2.302-1.077-1.987-2.397c0.379-1.577,1.111-3.279,1.111-4.418
		c0-1.019-0.553-1.869-1.697-1.869c-1.346,0-2.427,1.377-2.427,3.222c0,1.175,0.402,1.97,0.402,1.97s-1.377,5.772-1.619,6.784
		c-0.481,2.012-0.073,4.48-0.038,4.729c0.021,0.148,0.212,0.183,0.299,0.071c0.125-0.16,1.727-2.117,2.271-4.074
		c0.154-0.553,0.886-3.42,0.886-3.42c0.437,0.824,1.714,1.551,3.073,1.551c4.045,0,6.789-3.648,6.789-8.532
		C29.145,13.19,25.983,9.752,21.179,9.752z"/>
	<path fill="#999999" d="M20.665,0.999c-10.917,0-19.799,8.788-19.799,19.589c0,10.802,8.882,19.589,19.799,19.589
		c10.917,0,19.8-8.787,19.8-19.589C40.465,9.787,31.582,0.999,20.665,0.999z M20.665,39.222c-10.385,0-18.833-8.359-18.833-18.634
		S10.28,1.955,20.665,1.955c10.386,0,18.834,8.359,18.834,18.633S31.051,39.222,20.665,39.222z"/>
</g>
</svg>
