<?xml version="1.0" encoding="utf-8"?>
<!-- Generator: Adobe Illustrator 16.0.0, SVG Export Plug-In . SVG Version: 6.00 Build 0)  -->
<!DOCTYPE svg PUBLIC "-//W3C//DTD SVG 1.1//EN" "http://www.w3.org/Graphics/SVG/1.1/DTD/svg11.dtd">
<svg version="1.1" id="Layer_1" xmlns="http://www.w3.org/2000/svg" xmlns:xlink="http://www.w3.org/1999/xlink" x="0px" y="0px"
	 width="95px" height="95px" viewBox="0 0 95 95" enable-background="new 0 0 95 95" xml:space="preserve">
<path fill="#1B1B1C" d="M88.125,64.215H84.91c0.028-0.079,0.051-0.161,0.051-0.25c0-19.149-14-35.007-32.081-37.458
	c0.64-0.669,1.038-1.57,1.038-2.566c0-2.054-1.675-3.725-3.732-3.725h-4.371c-2.058,0-3.732,1.671-3.732,3.725
	c0,0.996,0.399,1.896,1.038,2.565c-18.081,2.451-32.082,18.31-32.082,37.459c0,0.089,0.022,0.171,0.05,0.25H7.875
	c-2.939,0-4.625,1.322-4.625,3.625c0,2.305,1.686,3.625,4.625,3.625H60.83c0.109,0,0.212-0.026,0.306-0.068
	c4.353,1.196,8.228,2.312,10.308,3.027c2.063,0.711,4.164,1.361,5.936,1.361c0.996,0,1.889-0.206,2.611-0.721
	c1.002-0.714,1.551-1.896,1.672-3.6h6.463c2.939,0,4.625-1.32,4.625-3.625C92.75,65.537,91.064,64.215,88.125,64.215z
	 M45.815,26.167c-1.231,0-2.232-0.999-2.232-2.226s1.001-2.225,2.232-2.225h4.371c1.23,0,2.232,0.998,2.232,2.225
	s-1.002,2.226-2.232,2.226H45.815z M12.539,63.965c0-20.015,15.908-36.298,35.461-36.298c19.553,0,35.461,16.284,35.461,36.298
	c0,0.089,0.022,0.171,0.051,0.25H12.488C12.517,64.136,12.539,64.054,12.539,63.965z M7.875,69.965c-3.125,0-3.125-1.6-3.125-2.125
	s0-2.125,3.125-2.125h31.716c0.888,0.227,8.514,2.174,16.265,4.25H7.875z M79.119,73.842c-1.43,1.021-4.459,0.104-7.188-0.836
	c-4.776-1.645-18.447-5.25-26.32-7.291h34.576v5C80.188,72.285,79.828,73.338,79.119,73.842z M88.125,69.965h-6.438v-4.25h6.438
	c3.125,0,3.125,1.6,3.125,2.125S91.25,69.965,88.125,69.965z"/>
</svg>
