<?xml version="1.0" encoding="utf-8"?>
<!-- Generator: Adobe Illustrator 16.0.0, SVG Export Plug-In . SVG Version: 6.00 Build 0)  -->
<!DOCTYPE svg PUBLIC "-//W3C//DTD SVG 1.1//EN" "http://www.w3.org/Graphics/SVG/1.1/DTD/svg11.dtd">
<svg version="1.1" id="Layer_1" xmlns="http://www.w3.org/2000/svg" xmlns:xlink="http://www.w3.org/1999/xlink" x="0px" y="0px"
	 width="279.085px" height="60.785px" viewBox="0 0 279.085 60.785" enable-background="new 0 0 279.085 60.785"
	 xml:space="preserve">
<path fill="#FFFFFF" d="M180.56,41.585v0.369h0.375h11.055h0.373l0.002-0.369v-1.873v-0.365h-0.375h-8.65v-8.721h8.65h0.375v-0.368
	v-1.872v-0.37h-0.375h-8.65v-6.127h8.65h0.375v-0.37v-1.871v-0.37h-0.375h-11.055h-0.375v0.37V41.585L180.56,41.585z"/>
<path fill="#FFFFFF" d="M169.199,23.941l0.605,0.515l0.011-0.787l0.031-2.207l0.002-0.181l-0.144-0.112
	c-0.736-0.567-1.539-1.039-2.399-1.407l0,0c-0.171-0.073-0.341-0.141-0.509-0.203c-0.166-0.061-0.34-0.121-0.521-0.178l-0.001-0.001
	l-0.004-0.001v0.001c-0.632-0.2-1.285-0.349-1.96-0.447c-0.682-0.1-1.383-0.15-2.109-0.15c-0.818,0-1.625,0.075-2.416,0.222
	s-1.568,0.367-2.328,0.659h-0.002c-1.099,0.421-2.08,0.965-2.947,1.624c-0.17,0.129-0.336,0.262-0.493,0.397
	c-0.162,0.138-0.318,0.28-0.47,0.425l-0.004,0.001l-0.004,0.002l0.002,0.001c-0.801,0.767-1.468,1.636-1.998,2.61
	c-0.104,0.19-0.205,0.383-0.299,0.581c-0.089,0.188-0.178,0.389-0.263,0.602h-0.001l-0.001,0.003v0.001
	c-0.249,0.616-0.444,1.247-0.591,1.894c-0.024,0.106-0.051,0.235-0.077,0.381c-0.146,0.782-0.224,1.596-0.224,2.437l0,0v0.007
	c0,1.229,0.146,2.392,0.443,3.485c0.059,0.209,0.121,0.421,0.189,0.632c0.07,0.209,0.148,0.414,0.227,0.614l0,0l0.004,0.006v0.003
	c0.414,1.038,0.975,1.987,1.674,2.847c0.141,0.17,0.28,0.332,0.424,0.49c0.144,0.154,0.295,0.312,0.455,0.469l0,0l0.002,0.004h0.002
	c0.785,0.764,1.685,1.408,2.693,1.93c0.198,0.104,0.396,0.199,0.6,0.287c0.211,0.098,0.42,0.184,0.625,0.262l0,0l0,0l0.002,0.004
	c0.638,0.242,1.285,0.438,1.941,0.578h0.002c0.114,0.025,0.243,0.053,0.385,0.076c0.793,0.146,1.604,0.225,2.438,0.225l0,0h0.007
	c0.883,0,1.778-0.096,2.68-0.283c0.18-0.035,0.354-0.074,0.526-0.117c0.161-0.041,0.337-0.09,0.527-0.146h0.009
	c0.902-0.264,1.773-0.604,2.607-1.025c0.17-0.086,0.332-0.172,0.483-0.256c0.152-0.084,0.312-0.176,0.478-0.273l0.004-0.002
	l0.182-0.107v-0.207v-2.338v-0.758l-0.607,0.469c-0.762,0.586-1.555,1.07-2.375,1.449c-0.16,0.072-0.32,0.143-0.483,0.209
	c-0.164,0.068-0.328,0.129-0.49,0.188v-0.002l-0.004,0.002v0.002c-0.491,0.172-0.987,0.309-1.493,0.41
	c-0.078,0.016-0.179,0.033-0.296,0.055c-0.604,0.104-1.219,0.156-1.832,0.156v-0.002h-0.007c-0.641,0-1.257-0.055-1.85-0.166
	c-0.592-0.107-1.166-0.275-1.721-0.496c-0.8-0.318-1.533-0.736-2.197-1.26l0,0c-0.119-0.092-0.246-0.199-0.381-0.318
	c-0.129-0.113-0.252-0.229-0.367-0.344v-0.002h-0.002h-0.002c-0.623-0.617-1.133-1.303-1.524-2.051
	c-0.076-0.143-0.147-0.288-0.218-0.444h-0.002c-0.063-0.142-0.129-0.295-0.19-0.461v0.002l-0.001-0.002
	c-0.175-0.459-0.312-0.95-0.419-1.47c-0.022-0.116-0.044-0.221-0.058-0.305v-0.005c-0.106-0.633-0.16-1.302-0.16-2.002h0.001V30.63
	c0-2.008,0.446-3.743,1.344-5.196c0.175-0.281,0.366-0.552,0.574-0.815c0.207-0.261,0.435-0.512,0.674-0.754l0.002,0.001
	l0.002-0.004l0.002-0.002c0.864-0.861,1.856-1.506,2.979-1.936c1.127-0.433,2.392-0.649,3.789-0.649
	c0.619,0,1.222,0.055,1.806,0.163c0.587,0.106,1.157,0.271,1.717,0.487c0.56,0.216,1.111,0.493,1.658,0.827
	C168.115,23.088,168.66,23.485,169.199,23.941L169.199,23.941z"/>
<path fill="#FFFFFF" d="M121.12,41.585v0.369h0.374h1.906h0.374v-0.369V24.85l15.134,17.62l0.66,0.768v-1.006V19.648v-0.37h-0.374
	h-1.89h-0.375v0.37v16.42L121.78,18.479l-0.66-0.767v1.003V41.585L121.12,41.585z"/>
<path fill="#FFFFFF" d="M94.758,41.957h0.255l0.093-0.234l1.814-4.562c0.977-2.463,1.435-3.61,1.853-4.641
	c0.392-0.97,0.752-1.826,1.424-3.439c0.573-1.375,1.317-3.165,2.158-5.188c0.714,1.782,1.262,3.15,1.699,4.243
	c0.885,2.212,1.343,3.354,1.728,4.336c0.424,1.078,0.897,2.316,1.872,4.862l1.676,4.383l0.092,0.24h0.258h2.212h0.556l-0.209-0.508
	l-9.388-22.808l-0.338-0.824l-0.353,0.819l-9.805,22.809l-0.22,0.512h0.564H94.758L94.758,41.957z"/>
<path fill="#FFFFFF" d="M80.682,41.585v0.369h0.372h2.03h0.374v-0.369V19.648v-0.37h-0.374h-2.03h-0.372v0.37V41.585L80.682,41.585z
	"/>
<path fill="#FFFFFF" d="M43.019,41.585v0.369h0.373h9.68h0.375v-0.369v-1.873v-0.365h-0.375h-7.274V19.648v-0.37H45.42h-2.029
	h-0.373v0.37L43.019,41.585L43.019,41.585z"/>
<path fill="#FFFFFF" d="M16.657,41.957h0.255l0.094-0.234l1.719-4.328c1.022-2.573,1.499-3.772,1.941-4.856
	c0.41-1.01,0.788-1.916,1.492-3.606c0.571-1.371,1.324-3.18,2.096-5.039c0.761,1.902,1.333,3.329,1.784,4.451
	c0.84,2.102,1.272,3.184,1.64,4.119c0.402,1.023,0.855,2.213,1.79,4.655l1.761,4.6l0.091,0.24h0.258h2.212h0.557l-0.208-0.508
	l-9.39-22.808l-0.338-0.824l-0.353,0.819l-9.806,22.809l-0.22,0.514h0.564h2.061V41.957z"/>
<path fill="#FFFFFF" d="M62.297,41.585v0.369h0.373h9.681h0.375v-0.369v-1.873v-0.365h-0.375h-7.276V19.648v-0.37H64.7h-2.03h-0.373
	v0.37V41.585z"/>
<path fill="#FFFFFF" d="M227.716,40.035c0.152,0.846,1.021,1.336,1.847,1.312c1.427-0.041,3.746-0.795,5.728-2.246
	c-0.181,0.543-0.334,1.014-0.418,1.271c-0.094,0.291-0.107,0.51,0.068,0.67c0.152,0.162,0.379,0.25,0.582,0.25
	c0.227,0,0.402-0.088,0.58-0.338c0.189-0.297,0.521-1.148,0.725-1.439c0.58-0.826,2.694-3.369,3.859-3.369
	c0.229,0,0.432,0.088,0.582,0.158c0.15,0.09,0.379,0.072,0.581-0.088c0.202-0.143,0.431-0.426,0.479-0.656
	c0.076-0.3-0.201-0.601-0.732-0.601h-0.025c-0.529,0-1.086,0.266-1.768,0.743c-0.986,0.674-1.568,1.244-2.254,1.953
	c-0.225,0.215-0.326,0.215-0.275-0.033c0.1-0.498,0.318-0.971,0.648-1.342c0.125-0.143,0.338-0.629,0.338-0.807
	c0.023-0.213-0.389-0.369-0.742-0.369c-0.253,0-0.574-0.013-0.775,0.147c-0.228,0.159-0.24,0.372-0.429,0.866
	c-0.163,0.426-0.442,1.234-0.716,2.051c-2.551,1.803-4.309,2.285-5.404,2.285c-0.742,0-0.947-0.508-0.912-1.105
	c1.592-0.719,2.49-0.936,3.689-1.758c0.501-0.346,0.896-0.836,0.896-1.385c0-0.966-0.934-1.47-1.805-1.314
	c-1.104,0.192-2.234,0.998-2.979,1.814c-0.849,0.936-1.262,1.984-1.369,2.691c-0.457,0.207-1.057,0.459-1.643,0.656
	c-0.574,0.193-2.363,0.867-2.121-0.557c0.104-0.621,1.147-3.213,1.535-4.01c0.086-0.178,0.209-0.205,0.477-0.229
	c2.346-0.221,2.773-0.236,3.402-0.365c0.412-0.084,0.66-0.395,0.146-0.406c-1.379-0.035-2.428-0.068-3.16-0.045
	c-0.195,0.01-0.389-0.002-0.314-0.141c0.08-0.162,0.229-0.545,0.561-1.08c0.033-0.055,0.217-0.277,0.32-0.398
	c0.103-0.121,0.283-0.404,0.289-0.479c0.021-0.312-0.568-0.4-0.787-0.4c-0.367,0-0.799,0.227-0.92,0.467
	c-0.203,0.396-0.836,1.598-0.961,1.834c-0.07,0.135-0.158,0.205-0.401,0.229c-0.464,0.047-0.437,0.008-0.802,0.062
	c-0.338,0.051-0.482,0.104-0.646,0.248c-0.164,0.141-0.189,0.385-0.008,0.502c0.123,0.075,0.293,0.071,0.512,0.047
	c0.243-0.027,0.34-0.008,0.633-0.027c0.219-0.016,0.258,0.023,0.184,0.179c-0.109,0.223-0.586,1.41-0.986,2.453
	c-1.117,1.055-2.742,2.467-3.725,2.467c-0.607,0-0.715-0.654-0.525-1.412c0.219-0.875,0.854-2.078,1.49-3.248
	c0.126-0.178-0.02-0.354-0.398-0.513c-0.15-0.07-0.617-0.004-0.793,0.086c-0.102,0.053-0.203,0.035-0.229-0.037
	c-0.152-0.141-0.404-0.354-0.656-0.354h-0.025c-0.279,0-0.984,0.089-2.021,0.743c-1.145,0.689-2.244,1.754-2.926,2.641
	c-0.049,0.018-0.104,0.041-0.16,0.072c-0.58,0.33-4.305,2.199-6.979,2.199c-1.047,0-2.058-0.645-2.111-1.705
	c-0.061-1.164,0.627-3.792,4.869-6.515c1.633-1.049,4.707-2.077,6.965-1.539c0.207,0.051,0.662-0.012,0.729-0.395
	c0.102-0.57-0.816-0.732-1.506-0.732h-0.027c-2.688-0.051-7.486,1.941-10.377,4.803c-1.361,1.349-2.529,2.774-2.574,4.388
	c-0.037,1.217,0.662,2.6,2.889,2.74c1.535,0.1,2.75-0.357,4.174-0.867c1.307-0.469,2.623-1.07,3.462-1.531
	c-0.39,0.625-0.479,1.002-0.469,1.227c0.042,0.855,0.834,0.873,1.062,0.873c0.379,0,0.859-0.162,1.467-0.535
	c0.684-0.406,2.1-1.506,2.451-1.844c0.152-0.104,0.203-0.088,0.203,0.018c0,0.195-0.104,0.709-0.055,1.082
	c0.129,1.082,0.965,1.279,1.57,1.279c0.961,0,2.562-0.957,3.713-1.979c-0.025,0.078-0.045,0.139-0.057,0.186
	c-0.299,1.154,0.09,1.758,1.201,1.758c0.221,0,0.754-0.037,1.114-0.143C225.974,40.775,227.009,40.365,227.716,40.035
	L227.716,40.035z M260.896,34.926h0.025c0.254,0,0.504,0.215,0.656,0.354c0.023,0.072,0.127,0.091,0.229,0.037
	c0.178-0.09,0.643-0.155,0.795-0.086c0.377,0.158,0.523,0.336,0.396,0.514c-0.979,1.801-1.644,3.551-2.431,5.459
	c-1.465,3.561-4.874,6.494-8.823,6.494c-0.539,0-3.08-0.088-3.022-0.727c0.026-0.303,0.552-0.762,1.005-0.639
	c0.355,0.096,1.518,0.58,2.387,0.66c3.602,0.33,6.023-3.01,7.161-5.973c0.36-0.938,0.624-1.629,0.731-1.982
	c0.047-0.154-0.035-0.229-0.196-0.092c-0.372,0.318-1.771,1.438-2.452,1.846c-0.607,0.373-1.087,0.535-1.467,0.535
	c-0.227,0-1.018-0.02-1.061-0.873c-0.002-0.023-0.002-0.057,0-0.086c-1.062,0.766-1.488,0.752-2.265,0.967
	c-0.671,0.188-1.831,0.096-1.364-1.627c0.188-0.703,0.817-2.199,1-2.654c0.215-0.547,0.604-1.088-0.105-1.088
	c-1.168,0-3.258,2.725-3.836,3.549c-0.203,0.291-0.536,1.143-0.727,1.438c-0.178,0.25-0.355,0.338-0.58,0.338
	c-0.203,0-0.432-0.088-0.582-0.25c-0.18-0.16-0.16-0.379-0.066-0.67c0.055-0.174,0.141-0.438,0.244-0.754
	c-0.941,0.664-1.992,1.189-2.85,1.461c-0.684,0.23-1.062,0.303-1.342,0.303c-0.65,0-1.206-0.336-0.986-1.01
	c0.246-0.764,1.098-3.355,1.438-4.252c0.189-0.494,0.201-0.707,0.431-0.866c0.202-0.16,0.521-0.147,0.775-0.147
	c0.354,0,0.767,0.156,0.739,0.369c0,0.178-0.211,0.664-0.338,0.807c-0.328,0.371-0.439,0.877-0.646,1.342
	c-0.443,0.994-0.562,1.479-0.752,2.156c-0.148,0.535,0.361,0.604,0.629,0.578c1.039-0.107,2.109-0.807,3.232-1.744
	c0.316-0.949,0.67-1.988,0.863-2.492c0.189-0.494,0.201-0.707,0.43-0.866c0.201-0.16,0.521-0.148,0.774-0.148
	c0.354,0,0.767,0.158,0.741,0.37c0,0.176-0.211,0.664-0.338,0.805c-0.328,0.373-0.547,0.846-0.648,1.344
	c-0.051,0.248,0.051,0.248,0.279,0.033c0.682-0.709,1.264-1.279,2.25-1.953c0.549-0.388,2.373-1.298,3.098-0.441
	c0.189,0.225-0.104,0.961-0.27,1.275c-0.395,0.742-0.865,1.688-1.117,2.414c-0.457,1.312-0.498,1.742,0.148,1.639
	c0.681-0.107,1.355-0.533,2.107-1.197c0.143-0.244,0.332-0.531,0.59-0.863c0.654-0.922,1.846-2.111,3.084-2.855
	C259.91,35.016,260.617,34.926,260.896,34.926L260.896,34.926z M260.238,35.882h-0.025c-0.354,0-0.885,0.34-1.565,0.906
	c-1.213,0.99-1.688,1.912-1.94,2.551c-0.149,0.336-0.139,0.814,0.189,0.814c0.202,0,0.438-0.123,0.917-0.424
	c0.431-0.283,1.138-0.904,1.896-1.613c0.305-0.301,0.834-1.062,0.937-1.188c0.103-0.178,0.177-0.443,0.127-0.654
	C260.718,36.062,260.566,35.882,260.238,35.882L260.238,35.882z M245.232,31.525c-0.404,0-0.766,0.104-0.995,0.672
	c-0.086,0.269-0.144,0.562-0.125,0.738c-0.003,0.25,0.185,0.416,0.519,0.557c0.289,0.123,0.55-0.03,0.658-0.26
	c0.174-0.369,0.317-0.678,0.508-1.101c0.146-0.33-0.057-0.606-0.537-0.606H245.232L245.232,31.525z M217.505,35.882
	c0.328,0,0.479,0.18,0.531,0.395c0.051,0.211-0.025,0.477-0.127,0.654c-0.102,0.123-0.633,0.887-0.938,1.188
	c-0.76,0.709-1.467,1.328-1.896,1.611c-0.479,0.303-0.713,0.426-0.914,0.426c-0.33,0-0.345-0.479-0.19-0.814
	c0.252-0.639,0.729-1.561,1.938-2.551c0.684-0.566,1.215-0.904,1.567-0.904L217.505,35.882L217.505,35.882z M229.492,38.599
	c0.414-1.105,1.99-2.936,2.623-2.936c0.327,0,0.663,0.27,0.561,0.693c-0.102,0.428-0.453,0.852-1.219,1.287
	C230.867,37.982,229.417,38.724,229.492,38.599z"/>
</svg>
